<svg width="25" height="28" viewBox="0 0 25 28" fill="none" xmlns="http://www.w3.org/2000/svg">
<path d="M22.3214 13.6364H8.48214V8.14458C8.48214 6.03521 10.2511 4.28272 12.4609 4.26142C14.6931 4.24011 16.5179 5.97129 16.5179 8.09664V8.94892C16.5179 9.65737 17.115 10.2273 17.8571 10.2273H19.6429C20.385 10.2273 20.9821 9.65737 20.9821 8.94892V8.09664C20.9821 3.62221 17.1596 -0.0159277 12.4721 5.24424e-05C7.7846 0.0160326 4.01786 3.70211 4.01786 8.17654V13.6364H2.67857C1.19978 13.6364 0 14.7817 0 16.1932V24.716C0 26.1275 1.19978 27.2728 2.67857 27.2728H22.3214C23.8002 27.2728 25 26.1275 25 24.716V16.1932C25 14.7817 23.8002 13.6364 22.3214 13.6364ZM14.7321 21.733C14.7321 22.9102 13.7333 23.8637 12.5 23.8637C11.2667 23.8637 10.2679 22.9102 10.2679 21.733V19.1762C10.2679 17.999 11.2667 17.0455 12.5 17.0455C13.7333 17.0455 14.7321 17.999 14.7321 19.1762V21.733Z" fill="#2F2E41" fill-opacity="0.78"/>
</svg>
