<svg width="25" height="28" viewBox="0 0 25 28" fill="none" xmlns="http://www.w3.org/2000/svg">
<g clip-path="url(#clip0)">
<path d="M12.5 13.6364C16.4453 13.6364 19.6429 10.5842 19.6429 6.81818C19.6429 3.0522 16.4453 0 12.5 0C8.55469 0 5.35714 3.0522 5.35714 6.81818C5.35714 10.5842 8.55469 13.6364 12.5 13.6364ZM17.5 15.3409H16.5681C15.3292 15.8842 13.9509 16.1932 12.5 16.1932C11.0491 16.1932 9.67634 15.8842 8.43192 15.3409H7.5C3.35937 15.3409 0 18.5476 0 22.5V24.7159C0 26.1275 1.19978 27.2727 2.67857 27.2727H22.3214C23.8002 27.2727 25 26.1275 25 24.7159V22.5C25 18.5476 21.6406 15.3409 17.5 15.3409Z" fill="#2F2E41"/>
</g>
<defs>
<clipPath id="clip0">
<rect width="25" height="27.2727" fill="white"/>
</clipPath>
</defs>
</svg>
